<mxfile host="Electron" modified="2023-05-23T12:43:45.173Z" agent="Mozilla/5.0 (Windows NT 10.0; Win64; x64) AppleWebKit/537.36 (KHTML, like Gecko) draw.io/21.2.8 Chrome/112.0.5615.165 Electron/24.2.0 Safari/537.36" etag="PnlYpa4AalFGj1RbmFx4" version="21.2.8" type="device">
  <diagram name="Page-1" id="CFpL6F1NL7GNB_lbLbLE">
    <mxGraphModel dx="1630" dy="550" grid="1" gridSize="10" guides="1" tooltips="1" connect="1" arrows="1" fold="1" page="1" pageScale="1" pageWidth="850" pageHeight="1100" math="0" shadow="0">
      <root>
        <mxCell id="0" />
        <mxCell id="1" parent="0" />
        <mxCell id="bsva98fCxQkHsxZj4bSc-1" value="Card" style="swimlane;fontStyle=1;align=center;verticalAlign=top;childLayout=stackLayout;horizontal=1;startSize=26;horizontalStack=0;resizeParent=1;resizeParentMax=0;resizeLast=0;collapsible=1;marginBottom=0;whiteSpace=wrap;html=1;" parent="1" vertex="1">
          <mxGeometry x="240" y="160" width="280" height="242" as="geometry" />
        </mxCell>
        <mxCell id="bsva98fCxQkHsxZj4bSc-16" value="- _suit: Suit" style="text;strokeColor=none;fillColor=none;align=left;verticalAlign=top;spacingLeft=4;spacingRight=4;overflow=hidden;rotatable=0;points=[[0,0.5],[1,0.5]];portConstraint=eastwest;whiteSpace=wrap;html=1;" parent="bsva98fCxQkHsxZj4bSc-1" vertex="1">
          <mxGeometry y="26" width="280" height="26" as="geometry" />
        </mxCell>
        <mxCell id="bsva98fCxQkHsxZj4bSc-17" value="- _rank: Rank" style="text;strokeColor=none;fillColor=none;align=left;verticalAlign=top;spacingLeft=4;spacingRight=4;overflow=hidden;rotatable=0;points=[[0,0.5],[1,0.5]];portConstraint=eastwest;whiteSpace=wrap;html=1;" parent="bsva98fCxQkHsxZj4bSc-1" vertex="1">
          <mxGeometry y="52" width="280" height="26" as="geometry" />
        </mxCell>
        <mxCell id="bsva98fCxQkHsxZj4bSc-2" value="- _value: int" style="text;strokeColor=none;fillColor=none;align=left;verticalAlign=top;spacingLeft=4;spacingRight=4;overflow=hidden;rotatable=0;points=[[0,0.5],[1,0.5]];portConstraint=eastwest;whiteSpace=wrap;html=1;" parent="bsva98fCxQkHsxZj4bSc-1" vertex="1">
          <mxGeometry y="78" width="280" height="26" as="geometry" />
        </mxCell>
        <mxCell id="bsva98fCxQkHsxZj4bSc-3" value="" style="line;strokeWidth=1;fillColor=none;align=left;verticalAlign=middle;spacingTop=-1;spacingLeft=3;spacingRight=3;rotatable=0;labelPosition=right;points=[];portConstraint=eastwest;strokeColor=inherit;" parent="bsva98fCxQkHsxZj4bSc-1" vertex="1">
          <mxGeometry y="104" width="280" height="8" as="geometry" />
        </mxCell>
        <mxCell id="bsva98fCxQkHsxZj4bSc-19" value="+ Card(Suit suit, Rank rank) &amp;lt;&amp;lt;constructor&amp;gt;&amp;gt;" style="text;strokeColor=none;fillColor=none;align=left;verticalAlign=top;spacingLeft=4;spacingRight=4;overflow=hidden;rotatable=0;points=[[0,0.5],[1,0.5]];portConstraint=eastwest;whiteSpace=wrap;html=1;" parent="bsva98fCxQkHsxZj4bSc-1" vertex="1">
          <mxGeometry y="112" width="280" height="26" as="geometry" />
        </mxCell>
        <mxCell id="bsva98fCxQkHsxZj4bSc-20" value="+ Suit(): Suit &amp;lt;&amp;lt;readonly property&amp;gt;&amp;gt;" style="text;strokeColor=none;fillColor=none;align=left;verticalAlign=top;spacingLeft=4;spacingRight=4;overflow=hidden;rotatable=0;points=[[0,0.5],[1,0.5]];portConstraint=eastwest;whiteSpace=wrap;html=1;" parent="bsva98fCxQkHsxZj4bSc-1" vertex="1">
          <mxGeometry y="138" width="280" height="26" as="geometry" />
        </mxCell>
        <mxCell id="bsva98fCxQkHsxZj4bSc-21" value="+ Rank(): Rank &amp;lt;&amp;lt;readonly property&amp;gt;&amp;gt;" style="text;strokeColor=none;fillColor=none;align=left;verticalAlign=top;spacingLeft=4;spacingRight=4;overflow=hidden;rotatable=0;points=[[0,0.5],[1,0.5]];portConstraint=eastwest;whiteSpace=wrap;html=1;" parent="bsva98fCxQkHsxZj4bSc-1" vertex="1">
          <mxGeometry y="164" width="280" height="26" as="geometry" />
        </mxCell>
        <mxCell id="bsva98fCxQkHsxZj4bSc-22" value="+ Value(): int &amp;lt;&amp;lt;property&amp;gt;&amp;gt;" style="text;strokeColor=none;fillColor=none;align=left;verticalAlign=top;spacingLeft=4;spacingRight=4;overflow=hidden;rotatable=0;points=[[0,0.5],[1,0.5]];portConstraint=eastwest;whiteSpace=wrap;html=1;" parent="bsva98fCxQkHsxZj4bSc-1" vertex="1">
          <mxGeometry y="190" width="280" height="26" as="geometry" />
        </mxCell>
        <mxCell id="bsva98fCxQkHsxZj4bSc-4" value="+ CardDesc(): string&amp;nbsp;" style="text;strokeColor=none;fillColor=none;align=left;verticalAlign=top;spacingLeft=4;spacingRight=4;overflow=hidden;rotatable=0;points=[[0,0.5],[1,0.5]];portConstraint=eastwest;whiteSpace=wrap;html=1;" parent="bsva98fCxQkHsxZj4bSc-1" vertex="1">
          <mxGeometry y="216" width="280" height="26" as="geometry" />
        </mxCell>
        <mxCell id="bsva98fCxQkHsxZj4bSc-9" value="«enum»&lt;br&gt;&lt;b&gt;Rank&lt;/b&gt;" style="html=1;whiteSpace=wrap;" parent="1" vertex="1">
          <mxGeometry x="170" y="40" width="110" height="50" as="geometry" />
        </mxCell>
        <mxCell id="bsva98fCxQkHsxZj4bSc-10" value="«enum»&lt;br&gt;&lt;b&gt;Suit&lt;/b&gt;" style="html=1;whiteSpace=wrap;" parent="1" vertex="1">
          <mxGeometry x="480" y="40" width="110" height="50" as="geometry" />
        </mxCell>
        <mxCell id="bsva98fCxQkHsxZj4bSc-11" style="rounded=0;orthogonalLoop=1;jettySize=auto;html=1;exitX=0;exitY=0.5;exitDx=0;exitDy=0;entryX=0.5;entryY=1;entryDx=0;entryDy=0;dashed=1;" parent="1" source="bsva98fCxQkHsxZj4bSc-2" target="bsva98fCxQkHsxZj4bSc-9" edge="1">
          <mxGeometry relative="1" as="geometry" />
        </mxCell>
        <mxCell id="bsva98fCxQkHsxZj4bSc-12" style="rounded=0;orthogonalLoop=1;jettySize=auto;html=1;exitX=1;exitY=0.5;exitDx=0;exitDy=0;entryX=0.5;entryY=1;entryDx=0;entryDy=0;dashed=1;" parent="1" source="bsva98fCxQkHsxZj4bSc-2" target="bsva98fCxQkHsxZj4bSc-10" edge="1">
          <mxGeometry relative="1" as="geometry">
            <mxPoint x="260" y="189" as="sourcePoint" />
            <mxPoint x="235" y="100" as="targetPoint" />
          </mxGeometry>
        </mxCell>
        <mxCell id="bsva98fCxQkHsxZj4bSc-14" value="uses" style="text;html=1;align=center;verticalAlign=middle;resizable=0;points=[];autosize=1;strokeColor=none;fillColor=none;" parent="1" vertex="1">
          <mxGeometry x="530" y="130" width="50" height="30" as="geometry" />
        </mxCell>
        <mxCell id="bsva98fCxQkHsxZj4bSc-18" value="uses" style="text;html=1;align=center;verticalAlign=middle;resizable=0;points=[];autosize=1;strokeColor=none;fillColor=none;" parent="1" vertex="1">
          <mxGeometry x="170" y="120" width="50" height="30" as="geometry" />
        </mxCell>
        <mxCell id="bsva98fCxQkHsxZj4bSc-23" value="Deck" style="swimlane;fontStyle=1;align=center;verticalAlign=top;childLayout=stackLayout;horizontal=1;startSize=26;horizontalStack=0;resizeParent=1;resizeParentMax=0;resizeLast=0;collapsible=1;marginBottom=0;whiteSpace=wrap;html=1;" parent="1" vertex="1">
          <mxGeometry y="490" width="280" height="164" as="geometry" />
        </mxCell>
        <mxCell id="bsva98fCxQkHsxZj4bSc-24" value="- _cards: List&amp;lt;Card&amp;gt;&amp;nbsp;" style="text;strokeColor=none;fillColor=none;align=left;verticalAlign=top;spacingLeft=4;spacingRight=4;overflow=hidden;rotatable=0;points=[[0,0.5],[1,0.5]];portConstraint=eastwest;whiteSpace=wrap;html=1;" parent="bsva98fCxQkHsxZj4bSc-23" vertex="1">
          <mxGeometry y="26" width="280" height="26" as="geometry" />
        </mxCell>
        <mxCell id="bsva98fCxQkHsxZj4bSc-25" value="- _random: Random" style="text;strokeColor=none;fillColor=none;align=left;verticalAlign=top;spacingLeft=4;spacingRight=4;overflow=hidden;rotatable=0;points=[[0,0.5],[1,0.5]];portConstraint=eastwest;whiteSpace=wrap;html=1;" parent="bsva98fCxQkHsxZj4bSc-23" vertex="1">
          <mxGeometry y="52" width="280" height="26" as="geometry" />
        </mxCell>
        <mxCell id="bsva98fCxQkHsxZj4bSc-27" value="" style="line;strokeWidth=1;fillColor=none;align=left;verticalAlign=middle;spacingTop=-1;spacingLeft=3;spacingRight=3;rotatable=0;labelPosition=right;points=[];portConstraint=eastwest;strokeColor=inherit;" parent="bsva98fCxQkHsxZj4bSc-23" vertex="1">
          <mxGeometry y="78" width="280" height="8" as="geometry" />
        </mxCell>
        <mxCell id="bsva98fCxQkHsxZj4bSc-28" value="+ Deck() &amp;lt;&amp;lt;constructor&amp;gt;&amp;gt;" style="text;strokeColor=none;fillColor=none;align=left;verticalAlign=top;spacingLeft=4;spacingRight=4;overflow=hidden;rotatable=0;points=[[0,0.5],[1,0.5]];portConstraint=eastwest;whiteSpace=wrap;html=1;" parent="bsva98fCxQkHsxZj4bSc-23" vertex="1">
          <mxGeometry y="86" width="280" height="26" as="geometry" />
        </mxCell>
        <mxCell id="bsva98fCxQkHsxZj4bSc-29" value="+ Shuffle():" style="text;strokeColor=none;fillColor=none;align=left;verticalAlign=top;spacingLeft=4;spacingRight=4;overflow=hidden;rotatable=0;points=[[0,0.5],[1,0.5]];portConstraint=eastwest;whiteSpace=wrap;html=1;" parent="bsva98fCxQkHsxZj4bSc-23" vertex="1">
          <mxGeometry y="112" width="280" height="26" as="geometry" />
        </mxCell>
        <mxCell id="bsva98fCxQkHsxZj4bSc-30" value="+ Deal(): Card" style="text;strokeColor=none;fillColor=none;align=left;verticalAlign=top;spacingLeft=4;spacingRight=4;overflow=hidden;rotatable=0;points=[[0,0.5],[1,0.5]];portConstraint=eastwest;whiteSpace=wrap;html=1;" parent="bsva98fCxQkHsxZj4bSc-23" vertex="1">
          <mxGeometry y="138" width="280" height="26" as="geometry" />
        </mxCell>
        <mxCell id="bsva98fCxQkHsxZj4bSc-33" style="rounded=0;orthogonalLoop=1;jettySize=auto;html=1;exitX=0.462;exitY=0.001;exitDx=0;exitDy=0;exitPerimeter=0;dashed=1;" parent="1" source="bsva98fCxQkHsxZj4bSc-23" edge="1">
          <mxGeometry relative="1" as="geometry">
            <mxPoint x="530" y="261" as="sourcePoint" />
            <mxPoint x="359" y="400" as="targetPoint" />
          </mxGeometry>
        </mxCell>
        <mxCell id="bsva98fCxQkHsxZj4bSc-34" value="uses" style="text;html=1;align=center;verticalAlign=middle;resizable=0;points=[];autosize=1;strokeColor=none;fillColor=none;" parent="1" vertex="1">
          <mxGeometry x="170" y="420" width="50" height="30" as="geometry" />
        </mxCell>
        <mxCell id="bsva98fCxQkHsxZj4bSc-60" value="Hand &amp;lt;&amp;lt;abstract&amp;gt;&amp;gt;" style="swimlane;fontStyle=1;align=center;verticalAlign=top;childLayout=stackLayout;horizontal=1;startSize=26;horizontalStack=0;resizeParent=1;resizeParentMax=0;resizeLast=0;collapsible=1;marginBottom=0;whiteSpace=wrap;html=1;" parent="1" vertex="1">
          <mxGeometry x="510" y="700" width="280" height="384" as="geometry" />
        </mxCell>
        <mxCell id="-h_UtStSzad8xASw4JNk-1" value="&amp;nbsp;- _cards: List &amp;lt;Card&amp;gt;&amp;nbsp;" style="text;html=1;align=left;verticalAlign=middle;resizable=0;points=[];autosize=1;strokeColor=none;fillColor=none;" parent="bsva98fCxQkHsxZj4bSc-60" vertex="1">
          <mxGeometry y="26" width="280" height="30" as="geometry" />
        </mxCell>
        <mxCell id="-h_UtStSzad8xASw4JNk-2" value="&amp;nbsp;- _value: int" style="text;html=1;align=left;verticalAlign=middle;resizable=0;points=[];autosize=1;strokeColor=none;fillColor=none;" parent="bsva98fCxQkHsxZj4bSc-60" vertex="1">
          <mxGeometry y="56" width="280" height="30" as="geometry" />
        </mxCell>
        <mxCell id="bsva98fCxQkHsxZj4bSc-150" value="&amp;nbsp;- _dealer: bool" style="text;html=1;align=left;verticalAlign=middle;resizable=0;points=[];autosize=1;strokeColor=none;fillColor=none;" parent="bsva98fCxQkHsxZj4bSc-60" vertex="1">
          <mxGeometry y="86" width="280" height="30" as="geometry" />
        </mxCell>
        <mxCell id="bsva98fCxQkHsxZj4bSc-63" value="" style="line;strokeWidth=1;fillColor=none;align=left;verticalAlign=middle;spacingTop=-1;spacingLeft=3;spacingRight=3;rotatable=0;labelPosition=right;points=[];portConstraint=eastwest;strokeColor=inherit;" parent="bsva98fCxQkHsxZj4bSc-60" vertex="1">
          <mxGeometry y="116" width="280" height="8" as="geometry" />
        </mxCell>
        <mxCell id="bsva98fCxQkHsxZj4bSc-65" value="+ AddCard(Card card)" style="text;strokeColor=none;fillColor=none;align=left;verticalAlign=top;spacingLeft=4;spacingRight=4;overflow=hidden;rotatable=0;points=[[0,0.5],[1,0.5]];portConstraint=eastwest;whiteSpace=wrap;html=1;" parent="bsva98fCxQkHsxZj4bSc-60" vertex="1">
          <mxGeometry y="124" width="280" height="26" as="geometry" />
        </mxCell>
        <mxCell id="bsva98fCxQkHsxZj4bSc-72" value="+ CalculateValue()&amp;nbsp;&amp;lt;&amp;lt;abstract&amp;gt;&amp;gt;" style="text;strokeColor=none;fillColor=none;align=left;verticalAlign=top;spacingLeft=4;spacingRight=4;overflow=hidden;rotatable=0;points=[[0,0.5],[1,0.5]];portConstraint=eastwest;whiteSpace=wrap;html=1;" parent="bsva98fCxQkHsxZj4bSc-60" vertex="1">
          <mxGeometry y="150" width="280" height="26" as="geometry" />
        </mxCell>
        <mxCell id="bsva98fCxQkHsxZj4bSc-73" value="+ GetValue(): int&amp;nbsp;&amp;lt;&amp;lt;virtual&amp;gt;&amp;gt;" style="text;strokeColor=none;fillColor=none;align=left;verticalAlign=top;spacingLeft=4;spacingRight=4;overflow=hidden;rotatable=0;points=[[0,0.5],[1,0.5]];portConstraint=eastwest;whiteSpace=wrap;html=1;" parent="bsva98fCxQkHsxZj4bSc-60" vertex="1">
          <mxGeometry y="176" width="280" height="26" as="geometry" />
        </mxCell>
        <mxCell id="bsva98fCxQkHsxZj4bSc-74" value="+ Has_won(): bool&amp;nbsp;&amp;lt;&amp;lt;abstract&amp;gt;&amp;gt;" style="text;strokeColor=none;fillColor=none;align=left;verticalAlign=top;spacingLeft=4;spacingRight=4;overflow=hidden;rotatable=0;points=[[0,0.5],[1,0.5]];portConstraint=eastwest;whiteSpace=wrap;html=1;" parent="bsva98fCxQkHsxZj4bSc-60" vertex="1">
          <mxGeometry y="202" width="280" height="26" as="geometry" />
        </mxCell>
        <mxCell id="V5giWNG4ymK7vK9VPQ8l-3" value="+ Display(bool show_card) &amp;lt;&amp;lt;abstract&amp;gt;&amp;gt;" style="text;strokeColor=none;fillColor=none;align=left;verticalAlign=top;spacingLeft=4;spacingRight=4;overflow=hidden;rotatable=0;points=[[0,0.5],[1,0.5]];portConstraint=eastwest;whiteSpace=wrap;html=1;" parent="bsva98fCxQkHsxZj4bSc-60" vertex="1">
          <mxGeometry y="228" width="280" height="26" as="geometry" />
        </mxCell>
        <mxCell id="V5giWNG4ymK7vK9VPQ8l-1" value="+ Hand(): this(false) &amp;lt;&amp;lt;constructor&amp;gt;&amp;gt;" style="text;strokeColor=none;fillColor=none;align=left;verticalAlign=top;spacingLeft=4;spacingRight=4;overflow=hidden;rotatable=0;points=[[0,0.5],[1,0.5]];portConstraint=eastwest;whiteSpace=wrap;html=1;" parent="bsva98fCxQkHsxZj4bSc-60" vertex="1">
          <mxGeometry y="254" width="280" height="26" as="geometry" />
        </mxCell>
        <mxCell id="V5giWNG4ymK7vK9VPQ8l-4" value="+ Hand(bool dealer) &amp;lt;&amp;lt;constructor&amp;gt;&amp;gt;" style="text;strokeColor=none;fillColor=none;align=left;verticalAlign=top;spacingLeft=4;spacingRight=4;overflow=hidden;rotatable=0;points=[[0,0.5],[1,0.5]];portConstraint=eastwest;whiteSpace=wrap;html=1;" parent="bsva98fCxQkHsxZj4bSc-60" vertex="1">
          <mxGeometry y="280" width="280" height="26" as="geometry" />
        </mxCell>
        <mxCell id="V5giWNG4ymK7vK9VPQ8l-6" value="+ Cards: List&amp;lt;Card&amp;gt; &amp;lt;&amp;lt;property&amp;gt;&amp;gt;" style="text;strokeColor=none;fillColor=none;align=left;verticalAlign=top;spacingLeft=4;spacingRight=4;overflow=hidden;rotatable=0;points=[[0,0.5],[1,0.5]];portConstraint=eastwest;whiteSpace=wrap;html=1;" parent="bsva98fCxQkHsxZj4bSc-60" vertex="1">
          <mxGeometry y="306" width="280" height="26" as="geometry" />
        </mxCell>
        <mxCell id="V5giWNG4ymK7vK9VPQ8l-5" value="+ Value: int &amp;lt;&amp;lt;property&amp;gt;&amp;gt;" style="text;strokeColor=none;fillColor=none;align=left;verticalAlign=top;spacingLeft=4;spacingRight=4;overflow=hidden;rotatable=0;points=[[0,0.5],[1,0.5]];portConstraint=eastwest;whiteSpace=wrap;html=1;" parent="bsva98fCxQkHsxZj4bSc-60" vertex="1">
          <mxGeometry y="332" width="280" height="26" as="geometry" />
        </mxCell>
        <mxCell id="V5giWNG4ymK7vK9VPQ8l-2" value="+ Dealer: bool &amp;lt;&amp;lt;property&amp;gt;&amp;gt;" style="text;strokeColor=none;fillColor=none;align=left;verticalAlign=top;spacingLeft=4;spacingRight=4;overflow=hidden;rotatable=0;points=[[0,0.5],[1,0.5]];portConstraint=eastwest;whiteSpace=wrap;html=1;" parent="bsva98fCxQkHsxZj4bSc-60" vertex="1">
          <mxGeometry y="358" width="280" height="26" as="geometry" />
        </mxCell>
        <mxCell id="bsva98fCxQkHsxZj4bSc-111" value="Game &amp;lt;&amp;lt;interface&amp;gt;&amp;gt;" style="swimlane;fontStyle=1;align=center;verticalAlign=top;childLayout=stackLayout;horizontal=1;startSize=26;horizontalStack=0;resizeParent=1;resizeParentMax=0;resizeLast=0;collapsible=1;marginBottom=0;whiteSpace=wrap;html=1;" parent="1" vertex="1">
          <mxGeometry x="250" y="1180" width="490" height="112" as="geometry" />
        </mxCell>
        <mxCell id="bsva98fCxQkHsxZj4bSc-112" value="" style="line;strokeWidth=1;fillColor=none;align=left;verticalAlign=middle;spacingTop=-1;spacingLeft=3;spacingRight=3;rotatable=0;labelPosition=right;points=[];portConstraint=eastwest;strokeColor=inherit;" parent="bsva98fCxQkHsxZj4bSc-111" vertex="1">
          <mxGeometry y="26" width="490" height="8" as="geometry" />
        </mxCell>
        <mxCell id="bsva98fCxQkHsxZj4bSc-113" value="+ Play(): void" style="text;strokeColor=none;fillColor=none;align=left;verticalAlign=top;spacingLeft=4;spacingRight=4;overflow=hidden;rotatable=0;points=[[0,0.5],[1,0.5]];portConstraint=eastwest;whiteSpace=wrap;html=1;" parent="bsva98fCxQkHsxZj4bSc-111" vertex="1">
          <mxGeometry y="34" width="490" height="26" as="geometry" />
        </mxCell>
        <mxCell id="bsva98fCxQkHsxZj4bSc-114" value="+ Check_Winner(Hand player_hand,Hand dealer_hand, bool game_over = false): bool" style="text;strokeColor=none;fillColor=none;align=left;verticalAlign=top;spacingLeft=4;spacingRight=4;overflow=hidden;rotatable=0;points=[[0,0.5],[1,0.5]];portConstraint=eastwest;whiteSpace=wrap;html=1;" parent="bsva98fCxQkHsxZj4bSc-111" vertex="1">
          <mxGeometry y="60" width="490" height="26" as="geometry" />
        </mxCell>
        <mxCell id="bsva98fCxQkHsxZj4bSc-115" value="+ Quit(): bool" style="text;strokeColor=none;fillColor=none;align=left;verticalAlign=top;spacingLeft=4;spacingRight=4;overflow=hidden;rotatable=0;points=[[0,0.5],[1,0.5]];portConstraint=eastwest;whiteSpace=wrap;html=1;" parent="bsva98fCxQkHsxZj4bSc-111" vertex="1">
          <mxGeometry y="86" width="490" height="26" as="geometry" />
        </mxCell>
        <mxCell id="bsva98fCxQkHsxZj4bSc-124" value="BaccaratGame" style="swimlane;fontStyle=1;align=center;verticalAlign=top;childLayout=stackLayout;horizontal=1;startSize=26;horizontalStack=0;resizeParent=1;resizeParentMax=0;resizeLast=0;collapsible=1;marginBottom=0;whiteSpace=wrap;html=1;" parent="1" vertex="1">
          <mxGeometry x="-450" y="1100" width="480" height="138" as="geometry" />
        </mxCell>
        <mxCell id="bsva98fCxQkHsxZj4bSc-125" value="&amp;nbsp;- choice: Choice" style="text;strokeColor=none;fillColor=none;align=left;verticalAlign=top;spacingLeft=4;spacingRight=4;overflow=hidden;rotatable=0;points=[[0,0.5],[1,0.5]];portConstraint=eastwest;whiteSpace=wrap;html=1;" parent="bsva98fCxQkHsxZj4bSc-124" vertex="1">
          <mxGeometry y="26" width="480" height="26" as="geometry" />
        </mxCell>
        <mxCell id="bsva98fCxQkHsxZj4bSc-126" value="" style="line;strokeWidth=1;fillColor=none;align=left;verticalAlign=middle;spacingTop=-1;spacingLeft=3;spacingRight=3;rotatable=0;labelPosition=right;points=[];portConstraint=eastwest;strokeColor=inherit;" parent="bsva98fCxQkHsxZj4bSc-124" vertex="1">
          <mxGeometry y="52" width="480" height="8" as="geometry" />
        </mxCell>
        <mxCell id="bsva98fCxQkHsxZj4bSc-127" value="+ Play()&amp;nbsp;" style="text;strokeColor=none;fillColor=none;align=left;verticalAlign=top;spacingLeft=4;spacingRight=4;overflow=hidden;rotatable=0;points=[[0,0.5],[1,0.5]];portConstraint=eastwest;whiteSpace=wrap;html=1;" parent="bsva98fCxQkHsxZj4bSc-124" vertex="1">
          <mxGeometry y="60" width="480" height="26" as="geometry" />
        </mxCell>
        <mxCell id="bsva98fCxQkHsxZj4bSc-128" value="+ Check_Winner(Hand player_hand,Hand dealer_hand, bool game_over = false): bool" style="text;strokeColor=none;fillColor=none;align=left;verticalAlign=top;spacingLeft=4;spacingRight=4;overflow=hidden;rotatable=0;points=[[0,0.5],[1,0.5]];portConstraint=eastwest;whiteSpace=wrap;html=1;" parent="bsva98fCxQkHsxZj4bSc-124" vertex="1">
          <mxGeometry y="86" width="480" height="26" as="geometry" />
        </mxCell>
        <mxCell id="bsva98fCxQkHsxZj4bSc-129" value="+ Quit(): bool" style="text;strokeColor=none;fillColor=none;align=left;verticalAlign=top;spacingLeft=4;spacingRight=4;overflow=hidden;rotatable=0;points=[[0,0.5],[1,0.5]];portConstraint=eastwest;whiteSpace=wrap;html=1;" parent="bsva98fCxQkHsxZj4bSc-124" vertex="1">
          <mxGeometry y="112" width="480" height="26" as="geometry" />
        </mxCell>
        <mxCell id="bsva98fCxQkHsxZj4bSc-130" style="rounded=0;orthogonalLoop=1;jettySize=auto;html=1;exitX=0;exitY=0.5;exitDx=0;exitDy=0;entryX=1;entryY=1.145;entryDx=0;entryDy=0;entryPerimeter=0;dashed=1;" parent="1" target="bsva98fCxQkHsxZj4bSc-4" edge="1">
          <mxGeometry relative="1" as="geometry">
            <mxPoint x="970" y="646.9999999999998" as="sourcePoint" />
            <mxPoint x="369" y="410" as="targetPoint" />
          </mxGeometry>
        </mxCell>
        <mxCell id="bsva98fCxQkHsxZj4bSc-131" value="uses" style="text;html=1;align=center;verticalAlign=middle;resizable=0;points=[];autosize=1;strokeColor=none;fillColor=none;" parent="1" vertex="1">
          <mxGeometry x="680" y="440" width="50" height="30" as="geometry" />
        </mxCell>
        <mxCell id="bsva98fCxQkHsxZj4bSc-132" style="rounded=0;orthogonalLoop=1;jettySize=auto;html=1;exitX=0;exitY=0.5;exitDx=0;exitDy=0;entryX=0.861;entryY=1.274;entryDx=0;entryDy=0;entryPerimeter=0;dashed=1;" parent="1" target="bsva98fCxQkHsxZj4bSc-4" edge="1">
          <mxGeometry relative="1" as="geometry">
            <mxPoint x="970" y="868.9999999999998" as="sourcePoint" />
            <mxPoint x="530" y="416" as="targetPoint" />
          </mxGeometry>
        </mxCell>
        <mxCell id="bsva98fCxQkHsxZj4bSc-133" value="uses" style="text;html=1;align=center;verticalAlign=middle;resizable=0;points=[];autosize=1;strokeColor=none;fillColor=none;" parent="1" vertex="1">
          <mxGeometry x="570" y="540" width="50" height="30" as="geometry" />
        </mxCell>
        <mxCell id="bsva98fCxQkHsxZj4bSc-134" style="rounded=0;orthogonalLoop=1;jettySize=auto;html=1;exitX=0.5;exitY=0;exitDx=0;exitDy=0;entryX=0.52;entryY=1.487;entryDx=0;entryDy=0;entryPerimeter=0;dashed=1;" parent="1" source="bsva98fCxQkHsxZj4bSc-60" target="bsva98fCxQkHsxZj4bSc-4" edge="1">
          <mxGeometry relative="1" as="geometry">
            <mxPoint x="790" y="879" as="sourcePoint" />
            <mxPoint x="491" y="419" as="targetPoint" />
          </mxGeometry>
        </mxCell>
        <mxCell id="bsva98fCxQkHsxZj4bSc-135" value="uses" style="text;html=1;align=center;verticalAlign=middle;resizable=0;points=[];autosize=1;strokeColor=none;fillColor=none;" parent="1" vertex="1">
          <mxGeometry x="520" y="660" width="50" height="30" as="geometry" />
        </mxCell>
        <mxCell id="bsva98fCxQkHsxZj4bSc-136" style="rounded=0;orthogonalLoop=1;jettySize=auto;html=1;exitX=-0.012;exitY=0.085;exitDx=0;exitDy=0;entryX=1.004;entryY=-0.034;entryDx=0;entryDy=0;entryPerimeter=0;exitPerimeter=0;" parent="1" target="bsva98fCxQkHsxZj4bSc-72" edge="1">
          <mxGeometry relative="1" as="geometry">
            <mxPoint x="966.6399999999999" y="970.21" as="sourcePoint" />
            <mxPoint x="491" y="419" as="targetPoint" />
          </mxGeometry>
        </mxCell>
        <mxCell id="bsva98fCxQkHsxZj4bSc-137" style="rounded=0;orthogonalLoop=1;jettySize=auto;html=1;exitX=-0.048;exitY=0.453;exitDx=0;exitDy=0;entryX=1;entryY=0.5;entryDx=0;entryDy=0;exitPerimeter=0;" parent="1" target="bsva98fCxQkHsxZj4bSc-65" edge="1">
          <mxGeometry relative="1" as="geometry">
            <mxPoint x="953.6799999999998" y="715.7780000000002" as="sourcePoint" />
            <mxPoint x="530" y="416" as="targetPoint" />
          </mxGeometry>
        </mxCell>
        <mxCell id="bsva98fCxQkHsxZj4bSc-138" value="inherit" style="text;html=1;align=center;verticalAlign=middle;resizable=0;points=[];autosize=1;strokeColor=none;fillColor=none;" parent="1" vertex="1">
          <mxGeometry x="890" y="690" width="60" height="30" as="geometry" />
        </mxCell>
        <mxCell id="bsva98fCxQkHsxZj4bSc-139" value="inherit" style="text;html=1;align=center;verticalAlign=middle;resizable=0;points=[];autosize=1;strokeColor=none;fillColor=none;" parent="1" vertex="1">
          <mxGeometry x="790" y="926" width="60" height="30" as="geometry" />
        </mxCell>
        <mxCell id="bsva98fCxQkHsxZj4bSc-141" style="rounded=0;orthogonalLoop=1;jettySize=auto;html=1;exitX=0.5;exitY=0;exitDx=0;exitDy=0;entryX=0.295;entryY=1.262;entryDx=0;entryDy=0;entryPerimeter=0;dashed=1;" parent="1" source="bsva98fCxQkHsxZj4bSc-111" target="V5giWNG4ymK7vK9VPQ8l-2" edge="1">
          <mxGeometry relative="1" as="geometry">
            <mxPoint x="787" y="980" as="sourcePoint" />
            <mxPoint x="531" y="789" as="targetPoint" />
          </mxGeometry>
        </mxCell>
        <mxCell id="bsva98fCxQkHsxZj4bSc-149" style="rounded=0;orthogonalLoop=1;jettySize=auto;html=1;entryX=0.502;entryY=1.41;entryDx=0;entryDy=0;entryPerimeter=0;exitX=0.5;exitY=0;exitDx=0;exitDy=0;dashed=1;" parent="1" source="bsva98fCxQkHsxZj4bSc-111" target="bsva98fCxQkHsxZj4bSc-4" edge="1">
          <mxGeometry relative="1" as="geometry">
            <mxPoint x="430" y="1010" as="sourcePoint" />
            <mxPoint x="616" y="858" as="targetPoint" />
          </mxGeometry>
        </mxCell>
        <mxCell id="bsva98fCxQkHsxZj4bSc-151" style="rounded=0;orthogonalLoop=1;jettySize=auto;html=1;entryX=0.479;entryY=1.051;entryDx=0;entryDy=0;entryPerimeter=0;exitX=0.25;exitY=0;exitDx=0;exitDy=0;dashed=1;" parent="1" source="bsva98fCxQkHsxZj4bSc-111" target="bsva98fCxQkHsxZj4bSc-30" edge="1">
          <mxGeometry relative="1" as="geometry">
            <mxPoint x="440" y="1020" as="sourcePoint" />
            <mxPoint x="391" y="423" as="targetPoint" />
          </mxGeometry>
        </mxCell>
        <mxCell id="bsva98fCxQkHsxZj4bSc-152" value="uses" style="text;html=1;align=center;verticalAlign=middle;resizable=0;points=[];autosize=1;strokeColor=none;fillColor=none;" parent="1" vertex="1">
          <mxGeometry x="230" y="764" width="50" height="30" as="geometry" />
        </mxCell>
        <mxCell id="bsva98fCxQkHsxZj4bSc-153" style="rounded=0;orthogonalLoop=1;jettySize=auto;html=1;entryX=0;entryY=0.5;entryDx=0;entryDy=0;exitX=1;exitY=0.5;exitDx=0;exitDy=0;dashed=1;" parent="1" target="bsva98fCxQkHsxZj4bSc-111" edge="1">
          <mxGeometry relative="1" as="geometry">
            <mxPoint x="30" y="958.9999999999998" as="sourcePoint" />
            <mxPoint x="144" y="665" as="targetPoint" />
          </mxGeometry>
        </mxCell>
        <mxCell id="bsva98fCxQkHsxZj4bSc-154" style="rounded=0;orthogonalLoop=1;jettySize=auto;html=1;entryX=-0.047;entryY=-0.006;entryDx=0;entryDy=0;entryPerimeter=0;exitX=1.005;exitY=-0.776;exitDx=0;exitDy=0;exitPerimeter=0;dashed=1;" parent="1" source="bsva98fCxQkHsxZj4bSc-128" target="bsva98fCxQkHsxZj4bSc-115" edge="1">
          <mxGeometry relative="1" as="geometry">
            <mxPoint x="100" y="1210" as="sourcePoint" />
            <mxPoint x="144" y="665" as="targetPoint" />
          </mxGeometry>
        </mxCell>
        <mxCell id="bsva98fCxQkHsxZj4bSc-156" value="implements" style="text;html=1;align=center;verticalAlign=middle;resizable=0;points=[];autosize=1;strokeColor=none;fillColor=none;" parent="1" vertex="1">
          <mxGeometry x="75" y="936" width="80" height="30" as="geometry" />
        </mxCell>
        <mxCell id="bsva98fCxQkHsxZj4bSc-157" value="implements" style="text;html=1;align=center;verticalAlign=middle;resizable=0;points=[];autosize=1;strokeColor=none;fillColor=none;" parent="1" vertex="1">
          <mxGeometry x="50" y="1230" width="80" height="30" as="geometry" />
        </mxCell>
        <mxCell id="-h_UtStSzad8xASw4JNk-7" value="BaccaratHand" style="swimlane;fontStyle=1;align=center;verticalAlign=top;childLayout=stackLayout;horizontal=1;startSize=26;horizontalStack=0;resizeParent=1;resizeParentMax=0;resizeLast=0;collapsible=1;marginBottom=0;whiteSpace=wrap;html=1;" parent="1" vertex="1">
          <mxGeometry x="980" y="560" width="280" height="220" as="geometry" />
        </mxCell>
        <mxCell id="-h_UtStSzad8xASw4JNk-8" value="&amp;nbsp;- _cardDict: Dictionary &amp;lt;Rank, int&amp;gt;" style="text;html=1;align=left;verticalAlign=middle;resizable=0;points=[];autosize=1;strokeColor=none;fillColor=none;" parent="-h_UtStSzad8xASw4JNk-7" vertex="1">
          <mxGeometry y="26" width="280" height="30" as="geometry" />
        </mxCell>
        <mxCell id="-h_UtStSzad8xASw4JNk-11" value="" style="line;strokeWidth=1;fillColor=none;align=left;verticalAlign=middle;spacingTop=-1;spacingLeft=3;spacingRight=3;rotatable=0;labelPosition=right;points=[];portConstraint=eastwest;strokeColor=inherit;" parent="-h_UtStSzad8xASw4JNk-7" vertex="1">
          <mxGeometry y="56" width="280" height="8" as="geometry" />
        </mxCell>
        <mxCell id="-h_UtStSzad8xASw4JNk-13" value="+ CalculateValue()&amp;nbsp;&amp;lt;&amp;lt;override&amp;gt;&amp;gt;" style="text;strokeColor=none;fillColor=none;align=left;verticalAlign=top;spacingLeft=4;spacingRight=4;overflow=hidden;rotatable=0;points=[[0,0.5],[1,0.5]];portConstraint=eastwest;whiteSpace=wrap;html=1;" parent="-h_UtStSzad8xASw4JNk-7" vertex="1">
          <mxGeometry y="64" width="280" height="26" as="geometry" />
        </mxCell>
        <mxCell id="-h_UtStSzad8xASw4JNk-14" value="+ GetValue(): int&amp;nbsp;&amp;lt;&amp;lt;override&amp;gt;&amp;gt;" style="text;strokeColor=none;fillColor=none;align=left;verticalAlign=top;spacingLeft=4;spacingRight=4;overflow=hidden;rotatable=0;points=[[0,0.5],[1,0.5]];portConstraint=eastwest;whiteSpace=wrap;html=1;" parent="-h_UtStSzad8xASw4JNk-7" vertex="1">
          <mxGeometry y="90" width="280" height="26" as="geometry" />
        </mxCell>
        <mxCell id="-h_UtStSzad8xASw4JNk-15" value="+ Has_won(): bool&amp;nbsp;&amp;lt;&amp;lt;override&amp;gt;&amp;gt;" style="text;strokeColor=none;fillColor=none;align=left;verticalAlign=top;spacingLeft=4;spacingRight=4;overflow=hidden;rotatable=0;points=[[0,0.5],[1,0.5]];portConstraint=eastwest;whiteSpace=wrap;html=1;" parent="-h_UtStSzad8xASw4JNk-7" vertex="1">
          <mxGeometry y="116" width="280" height="26" as="geometry" />
        </mxCell>
        <mxCell id="-h_UtStSzad8xASw4JNk-16" value="+ Display(bool show_card) &amp;lt;&amp;lt;override&amp;gt;&amp;gt;" style="text;strokeColor=none;fillColor=none;align=left;verticalAlign=top;spacingLeft=4;spacingRight=4;overflow=hidden;rotatable=0;points=[[0,0.5],[1,0.5]];portConstraint=eastwest;whiteSpace=wrap;html=1;" parent="-h_UtStSzad8xASw4JNk-7" vertex="1">
          <mxGeometry y="142" width="280" height="26" as="geometry" />
        </mxCell>
        <mxCell id="-h_UtStSzad8xASw4JNk-17" value="+ BaccaratHand(): this(false) &amp;lt;&amp;lt;constructor&amp;gt;&amp;gt;" style="text;strokeColor=none;fillColor=none;align=left;verticalAlign=top;spacingLeft=4;spacingRight=4;overflow=hidden;rotatable=0;points=[[0,0.5],[1,0.5]];portConstraint=eastwest;whiteSpace=wrap;html=1;" parent="-h_UtStSzad8xASw4JNk-7" vertex="1">
          <mxGeometry y="168" width="280" height="26" as="geometry" />
        </mxCell>
        <mxCell id="-h_UtStSzad8xASw4JNk-18" value="+ BaccaratHand(bool dealer) &amp;lt;&amp;lt;constructor&amp;gt;&amp;gt;" style="text;strokeColor=none;fillColor=none;align=left;verticalAlign=top;spacingLeft=4;spacingRight=4;overflow=hidden;rotatable=0;points=[[0,0.5],[1,0.5]];portConstraint=eastwest;whiteSpace=wrap;html=1;" parent="-h_UtStSzad8xASw4JNk-7" vertex="1">
          <mxGeometry y="194" width="280" height="26" as="geometry" />
        </mxCell>
        <mxCell id="-h_UtStSzad8xASw4JNk-22" value="GameFactory" style="swimlane;fontStyle=1;align=center;verticalAlign=top;childLayout=stackLayout;horizontal=1;startSize=26;horizontalStack=0;resizeParent=1;resizeParentMax=0;resizeLast=0;collapsible=1;marginBottom=0;whiteSpace=wrap;html=1;" parent="1" vertex="1">
          <mxGeometry x="300" y="1470" width="250" height="60" as="geometry" />
        </mxCell>
        <mxCell id="-h_UtStSzad8xASw4JNk-24" value="" style="line;strokeWidth=1;fillColor=none;align=left;verticalAlign=middle;spacingTop=-1;spacingLeft=3;spacingRight=3;rotatable=0;labelPosition=right;points=[];portConstraint=eastwest;strokeColor=inherit;" parent="-h_UtStSzad8xASw4JNk-22" vertex="1">
          <mxGeometry y="26" width="250" height="8" as="geometry" />
        </mxCell>
        <mxCell id="-h_UtStSzad8xASw4JNk-25" value="&amp;nbsp;+ GetGame(int gamechoice): Game" style="text;strokeColor=none;fillColor=none;align=left;verticalAlign=top;spacingLeft=4;spacingRight=4;overflow=hidden;rotatable=0;points=[[0,0.5],[1,0.5]];portConstraint=eastwest;whiteSpace=wrap;html=1;" parent="-h_UtStSzad8xASw4JNk-22" vertex="1">
          <mxGeometry y="34" width="250" height="26" as="geometry" />
        </mxCell>
        <mxCell id="-h_UtStSzad8xASw4JNk-26" style="rounded=0;orthogonalLoop=1;jettySize=auto;html=1;entryX=0.215;entryY=1.051;entryDx=0;entryDy=0;entryPerimeter=0;exitX=0.4;exitY=0;exitDx=0;exitDy=0;exitPerimeter=0;dashed=1;" parent="1" source="-h_UtStSzad8xASw4JNk-22" target="bsva98fCxQkHsxZj4bSc-115" edge="1">
          <mxGeometry relative="1" as="geometry">
            <mxPoint x="42" y="1176" as="sourcePoint" />
            <mxPoint x="242" y="1276" as="targetPoint" />
          </mxGeometry>
        </mxCell>
        <mxCell id="-h_UtStSzad8xASw4JNk-27" value="uses" style="text;html=1;align=center;verticalAlign=middle;resizable=0;points=[];autosize=1;strokeColor=none;fillColor=none;" parent="1" vertex="1">
          <mxGeometry x="300" y="1370" width="50" height="30" as="geometry" />
        </mxCell>
        <mxCell id="-h_UtStSzad8xASw4JNk-28" value="BlackJackHand" style="swimlane;fontStyle=1;align=center;verticalAlign=top;childLayout=stackLayout;horizontal=1;startSize=26;horizontalStack=0;resizeParent=1;resizeParentMax=0;resizeLast=0;collapsible=1;marginBottom=0;whiteSpace=wrap;html=1;" parent="1" vertex="1">
          <mxGeometry x="970" y="841" width="280" height="194" as="geometry" />
        </mxCell>
        <mxCell id="-h_UtStSzad8xASw4JNk-29" value="&amp;nbsp;- _cardDict: Dictionary &amp;lt;Rank, int&amp;gt;" style="text;html=1;align=left;verticalAlign=middle;resizable=0;points=[];autosize=1;strokeColor=none;fillColor=none;" parent="-h_UtStSzad8xASw4JNk-28" vertex="1">
          <mxGeometry y="26" width="280" height="30" as="geometry" />
        </mxCell>
        <mxCell id="-h_UtStSzad8xASw4JNk-30" value="" style="line;strokeWidth=1;fillColor=none;align=left;verticalAlign=middle;spacingTop=-1;spacingLeft=3;spacingRight=3;rotatable=0;labelPosition=right;points=[];portConstraint=eastwest;strokeColor=inherit;" parent="-h_UtStSzad8xASw4JNk-28" vertex="1">
          <mxGeometry y="56" width="280" height="8" as="geometry" />
        </mxCell>
        <mxCell id="-h_UtStSzad8xASw4JNk-31" value="+ CalculateValue()&amp;nbsp;&amp;lt;&amp;lt;override&amp;gt;&amp;gt;" style="text;strokeColor=none;fillColor=none;align=left;verticalAlign=top;spacingLeft=4;spacingRight=4;overflow=hidden;rotatable=0;points=[[0,0.5],[1,0.5]];portConstraint=eastwest;whiteSpace=wrap;html=1;" parent="-h_UtStSzad8xASw4JNk-28" vertex="1">
          <mxGeometry y="64" width="280" height="26" as="geometry" />
        </mxCell>
        <mxCell id="-h_UtStSzad8xASw4JNk-33" value="+ Has_won(): bool&amp;nbsp;&amp;lt;&amp;lt;override&amp;gt;&amp;gt;" style="text;strokeColor=none;fillColor=none;align=left;verticalAlign=top;spacingLeft=4;spacingRight=4;overflow=hidden;rotatable=0;points=[[0,0.5],[1,0.5]];portConstraint=eastwest;whiteSpace=wrap;html=1;" parent="-h_UtStSzad8xASw4JNk-28" vertex="1">
          <mxGeometry y="90" width="280" height="26" as="geometry" />
        </mxCell>
        <mxCell id="-h_UtStSzad8xASw4JNk-34" value="+ Display(bool show_card) &amp;lt;&amp;lt;override&amp;gt;&amp;gt;" style="text;strokeColor=none;fillColor=none;align=left;verticalAlign=top;spacingLeft=4;spacingRight=4;overflow=hidden;rotatable=0;points=[[0,0.5],[1,0.5]];portConstraint=eastwest;whiteSpace=wrap;html=1;" parent="-h_UtStSzad8xASw4JNk-28" vertex="1">
          <mxGeometry y="116" width="280" height="26" as="geometry" />
        </mxCell>
        <mxCell id="-h_UtStSzad8xASw4JNk-35" value="+ BlackJackHand(): this(false) &amp;lt;&amp;lt;constructor&amp;gt;&amp;gt;" style="text;strokeColor=none;fillColor=none;align=left;verticalAlign=top;spacingLeft=4;spacingRight=4;overflow=hidden;rotatable=0;points=[[0,0.5],[1,0.5]];portConstraint=eastwest;whiteSpace=wrap;html=1;" parent="-h_UtStSzad8xASw4JNk-28" vertex="1">
          <mxGeometry y="142" width="280" height="26" as="geometry" />
        </mxCell>
        <mxCell id="-h_UtStSzad8xASw4JNk-36" value="+ BlackJackHand(bool dealer) &amp;lt;&amp;lt;constructor&amp;gt;&amp;gt;" style="text;strokeColor=none;fillColor=none;align=left;verticalAlign=top;spacingLeft=4;spacingRight=4;overflow=hidden;rotatable=0;points=[[0,0.5],[1,0.5]];portConstraint=eastwest;whiteSpace=wrap;html=1;" parent="-h_UtStSzad8xASw4JNk-28" vertex="1">
          <mxGeometry y="168" width="280" height="26" as="geometry" />
        </mxCell>
        <mxCell id="-h_UtStSzad8xASw4JNk-37" value="«enum»&lt;br&gt;Choice" style="html=1;whiteSpace=wrap;" parent="1" vertex="1">
          <mxGeometry x="-250" y="1330" width="110" height="50" as="geometry" />
        </mxCell>
        <mxCell id="-h_UtStSzad8xASw4JNk-38" style="rounded=0;orthogonalLoop=1;jettySize=auto;html=1;dashed=1;exitX=0.41;exitY=1.282;exitDx=0;exitDy=0;exitPerimeter=0;entryX=0.106;entryY=0.067;entryDx=0;entryDy=0;entryPerimeter=0;" parent="1" source="bsva98fCxQkHsxZj4bSc-129" target="-h_UtStSzad8xASw4JNk-37" edge="1">
          <mxGeometry relative="1" as="geometry">
            <mxPoint x="-190" y="1320" as="sourcePoint" />
            <mxPoint x="-320" y="1330" as="targetPoint" />
          </mxGeometry>
        </mxCell>
        <mxCell id="-h_UtStSzad8xASw4JNk-39" value="BlackJackGame" style="swimlane;fontStyle=1;align=center;verticalAlign=top;childLayout=stackLayout;horizontal=1;startSize=26;horizontalStack=0;resizeParent=1;resizeParentMax=0;resizeLast=0;collapsible=1;marginBottom=0;whiteSpace=wrap;html=1;" parent="1" vertex="1">
          <mxGeometry x="-450" y="882" width="480" height="112" as="geometry" />
        </mxCell>
        <mxCell id="-h_UtStSzad8xASw4JNk-41" value="" style="line;strokeWidth=1;fillColor=none;align=left;verticalAlign=middle;spacingTop=-1;spacingLeft=3;spacingRight=3;rotatable=0;labelPosition=right;points=[];portConstraint=eastwest;strokeColor=inherit;" parent="-h_UtStSzad8xASw4JNk-39" vertex="1">
          <mxGeometry y="26" width="480" height="8" as="geometry" />
        </mxCell>
        <mxCell id="-h_UtStSzad8xASw4JNk-42" value="+ Play()&amp;nbsp;" style="text;strokeColor=none;fillColor=none;align=left;verticalAlign=top;spacingLeft=4;spacingRight=4;overflow=hidden;rotatable=0;points=[[0,0.5],[1,0.5]];portConstraint=eastwest;whiteSpace=wrap;html=1;" parent="-h_UtStSzad8xASw4JNk-39" vertex="1">
          <mxGeometry y="34" width="480" height="26" as="geometry" />
        </mxCell>
        <mxCell id="-h_UtStSzad8xASw4JNk-43" value="+ Check_Winner(Hand player_hand,Hand dealer_hand, bool game_over = false): bool" style="text;strokeColor=none;fillColor=none;align=left;verticalAlign=top;spacingLeft=4;spacingRight=4;overflow=hidden;rotatable=0;points=[[0,0.5],[1,0.5]];portConstraint=eastwest;whiteSpace=wrap;html=1;" parent="-h_UtStSzad8xASw4JNk-39" vertex="1">
          <mxGeometry y="60" width="480" height="26" as="geometry" />
        </mxCell>
        <mxCell id="-h_UtStSzad8xASw4JNk-44" value="+ Quit(): bool" style="text;strokeColor=none;fillColor=none;align=left;verticalAlign=top;spacingLeft=4;spacingRight=4;overflow=hidden;rotatable=0;points=[[0,0.5],[1,0.5]];portConstraint=eastwest;whiteSpace=wrap;html=1;" parent="-h_UtStSzad8xASw4JNk-39" vertex="1">
          <mxGeometry y="86" width="480" height="26" as="geometry" />
        </mxCell>
        <mxCell id="-h_UtStSzad8xASw4JNk-45" value="uses" style="text;html=1;align=center;verticalAlign=middle;resizable=0;points=[];autosize=1;strokeColor=none;fillColor=none;" parent="1" vertex="1">
          <mxGeometry x="610" y="1120" width="50" height="30" as="geometry" />
        </mxCell>
        <mxCell id="-h_UtStSzad8xASw4JNk-46" value="uses" style="text;html=1;align=center;verticalAlign=middle;resizable=0;points=[];autosize=1;strokeColor=none;fillColor=none;" parent="1" vertex="1">
          <mxGeometry x="410" y="1090" width="50" height="30" as="geometry" />
        </mxCell>
        <mxCell id="-h_UtStSzad8xASw4JNk-47" value="uses" style="text;html=1;align=center;verticalAlign=middle;resizable=0;points=[];autosize=1;strokeColor=none;fillColor=none;" parent="1" vertex="1">
          <mxGeometry x="-310" y="1280" width="50" height="30" as="geometry" />
        </mxCell>
      </root>
    </mxGraphModel>
  </diagram>
</mxfile>
